# Blender 5.1.2
# www.blender.org
o Cube
v 0.158265 -0.700000 -0.200000
v 0.200000 -0.700000 -0.158265
v 0.200000 -0.700000 0.158265
v 0.158265 -0.700000 0.200000
v -0.200000 -0.700000 -0.158265
v -0.158265 -0.700000 -0.200000
v -0.158265 -0.700000 0.200000
v -0.200000 -0.700000 0.158265
v 0.186869 0.000000 -0.152826
v 0.200000 -0.013131 -0.158265
v 0.152826 0.000000 -0.186869
v 0.158265 -0.013131 -0.200000
v 0.152826 0.000000 0.186869
v 0.158265 -0.013131 0.200000
v 0.186869 0.000000 0.152826
v 0.200000 -0.013131 0.158265
v -0.152826 0.000000 -0.186869
v -0.158265 -0.013131 -0.200000
v -0.186869 0.000000 -0.152826
v -0.200000 -0.013131 -0.158265
v -0.186869 0.000000 0.152826
v -0.200000 -0.013131 0.158265
v -0.152826 0.000000 0.186869
v -0.158265 -0.013131 0.200000
v 0.250690 -1.000000 -0.395996
v 0.395996 -1.000000 -0.250690
v 0.395996 -1.000000 0.250690
v 0.250690 -1.000000 0.395996
v -0.395996 -1.000000 -0.250690
v -0.250690 -1.000000 -0.395996
v -0.250690 -1.000000 0.395996
v -0.395996 -1.000000 0.250690
v 0.139470 -0.700000 -0.176249
v -0.139470 -0.700000 -0.176249
v 0.176249 -0.700000 0.139470
v 0.176249 -0.700000 -0.139470
v -0.176249 -0.700000 0.139470
v -0.176249 -0.700000 -0.139470
v 0.139470 -0.700000 0.176249
v -0.139470 -0.700000 0.176249
v 0.220919 -1.000000 -0.348970
v -0.220919 -1.000000 -0.348970
v 0.348970 -1.000000 0.220919
v 0.348970 -1.000000 -0.220919
v -0.348970 -1.000000 0.220919
v -0.348970 -1.000000 -0.220919
v 0.220919 -1.000000 0.348970
v -0.220919 -1.000000 0.348970
vn -0.0000 -1.0000 -0.0000
vn 0.5000 0.7071 -0.5000
vn -0.5000 0.7071 0.5000
vn 0.5000 0.7071 0.5000
vn -0.5000 0.7071 -0.5000
vn -0.0000 0.7071 -0.7071
vn 0.7071 0.7071 -0.0000
vn -0.7071 0.7071 -0.0000
vn -0.0000 0.7071 0.7071
vn -0.0000 1.0000 -0.0000
vn 0.7071 -0.0000 -0.7071
vn 1.0000 -0.0000 -0.0000
vn -0.0000 -0.0000 -1.0000
vn 0.7071 -0.0000 0.7071
vn -0.0000 -0.0000 1.0000
vn -0.7071 -0.0000 -0.7071
vn -1.0000 -0.0000 -0.0000
vn -0.7071 -0.0000 0.7071
vn -0.8197 -0.1081 0.5625
vn -0.0000 -0.4990 -0.8666
vn -0.8666 -0.4990 -0.0000
vn 0.8666 -0.4990 -0.0000
vn -0.0000 -0.4990 0.8666
vn 0.8197 -0.1081 0.5625
vn 0.8197 -0.1081 -0.5625
vn -0.8197 -0.1081 -0.5625
vn -0.5625 -0.1081 -0.8197
vn -0.5625 -0.1081 0.8197
vn 0.5625 -0.1081 0.8197
vn 0.5625 -0.1081 -0.8197
vn -0.0000 0.5469 0.8372
vn 0.8372 0.5469 -0.0000
vn -0.0000 0.5469 -0.8372
vn -0.8372 0.5469 -0.0000
vt 0.125000 0.526084
vt 0.151084 0.500000
vt 0.366305 0.482611
vt 0.375000 0.526084
vt 0.375000 0.723916
vt 0.366305 0.767389
vt 0.151084 0.750000
vt 0.125000 0.723916
vt 0.640139 0.494032
vt 0.630789 0.527253
vt 0.621717 0.526084
vt 0.631061 0.482611
vt 0.845076 0.742101
vt 0.866606 0.720571
vt 0.875000 0.723916
vt 0.848916 0.750000
vt 0.630789 0.722747
vt 0.640139 0.755968
vt 0.631061 0.767389
vt 0.621717 0.723916
vt 0.866606 0.529430
vt 0.845076 0.507899
vt 0.848916 0.500000
vt 0.875000 0.526084
vt 0.375000 0.276084
vt 0.621717 0.276084
vt 0.621717 0.973916
vt 0.375000 0.973916
vt 0.375000 0.223916
vt 0.621717 0.223916
vt 0.375000 0.026084
vt 0.621717 0.026084
vt 0.375000 0.000000
vt 0.621717 0.000000
vt 0.000000 0.000000
s 0
f 5/1/1 6/2/1 1/3/1 2/4/1 3/5/1 4/6/1 7/7/1 8/8/1
f 11/9/2 9/10/2 10/11/2 12/12/2
f 23/13/3 21/14/3 22/15/3 24/16/3
f 15/17/4 13/18/4 14/19/4 16/20/4
f 19/21/5 17/22/5 18/23/5 20/24/5
f 17/22/6 11/9/6 12/12/6 18/23/6
f 9/10/7 15/17/7 16/20/7 10/11/7
f 20/24/8 22/15/8 21/14/8 19/21/8
f 24/16/9 14/19/9 13/18/9 23/13/9
f 9/10/10 11/9/10 17/22/10 19/21/10 21/14/10 23/13/10 13/18/10 15/17/10
f 10/11/11 2/4/11 1/3/11 12/12/11
f 2/4/12 10/11/12 16/20/12 3/5/12
f 6/25/13 18/26/13 12/12/13 1/3/13
f 14/19/14 4/6/14 3/5/14 16/20/14
f 4/6/15 14/19/15 24/27/15 7/28/15
f 18/26/16 6/25/16 5/29/16 20/30/16
f 8/31/17 22/32/17 20/30/17 5/29/17
f 7/33/18 24/34/18 22/32/18 8/31/18
f 8/31/10 37/31/10 38/29/10 5/29/10
f 30/35/19 42/35/19 34/35/19 6/35/19
f 29/35/1 46/35/1 45/35/1 32/35/1
f 2/4/10 36/4/10 35/5/10 3/5/10
f 39/6/20 47/6/20 48/7/20 40/7/20
f 36/4/21 44/4/21 43/5/21 35/5/21
f 37/8/22 45/8/22 46/1/22 38/1/22
f 34/2/23 42/2/23 41/3/23 33/3/23
f 31/35/1 48/35/1 47/35/1 28/35/1
f 1/35/24 33/35/24 41/35/24 25/35/24
f 4/6/10 39/6/10 40/28/10 7/28/10
f 28/35/25 47/35/25 39/35/25 4/35/25
f 7/35/26 40/35/26 48/35/26 31/35/26
f 26/35/27 44/35/27 36/35/27 2/35/27
f 3/35/28 35/35/28 43/35/28 27/35/28
f 25/35/1 41/35/1 42/35/1 30/35/1
f 32/35/29 45/35/29 37/35/29 8/35/29
f 6/25/10 34/25/10 33/3/10 1/3/10
f 27/35/1 43/35/1 44/35/1 26/35/1
f 5/35/30 38/35/30 46/35/30 29/35/30
f 4/35/31 7/35/31 31/35/31 28/35/31
f 27/35/32 26/35/32 2/35/32 3/35/32
f 25/35/33 30/35/33 6/35/33 1/35/33
f 8/35/34 5/35/34 29/35/34 32/35/34
