# Blender 5.1.2
# www.blender.org
mtllib paper.mtl
o Plane
v -1.000000 -0.543348 0.387996
v 1.000000 -0.283623 0.713510
v -1.000000 1.000000 0.105736
v 1.000000 1.000000 0.159966
v -1.000000 0.818182 0.048590
v -1.000000 0.636364 0.013385
v -1.000000 0.458512 0.003588
v -1.000000 0.291334 0.016008
v -1.000000 0.134937 0.037878
v -1.000000 -0.010678 0.069025
v -1.000000 -0.145084 0.109753
v -1.000000 -0.265539 0.162024
v -1.000000 -0.371896 0.225945
v -1.000000 -0.464446 0.301307
v -0.818182 -0.561548 0.374971
v -0.636364 -0.572760 0.366947
v -0.454545 -0.576985 0.363923
v -0.272727 -0.577023 0.363896
v -0.090909 -0.577003 0.363920
v 0.090909 -0.568185 0.374427
v 0.272727 -0.543336 0.404037
v 0.454545 -0.502456 0.452750
v 0.636364 -0.445543 0.520567
v 0.818182 -0.372599 0.607487
v 1.000000 -0.252480 0.563818
v 1.000000 -0.204667 0.430419
v 1.000000 -0.140131 0.313374
v 1.000000 -0.058493 0.213137
v 1.000000 0.040964 0.130560
v 1.000000 0.159295 0.066903
v 1.000000 0.297899 0.027429
v 1.000000 0.458515 0.022433
v 1.000000 0.636364 0.050165
v 1.000000 0.818182 0.097323
v 0.818182 1.000000 0.097323
v 0.636364 1.000000 0.050165
v 0.454545 1.000000 0.018492
v 0.272727 1.000000 0.002304
v 0.090909 1.000000 0.000000
v -0.090909 1.000000 0.000000
v -0.272727 1.000000 0.000000
v -0.454545 1.000000 0.000120
v -0.636364 1.000000 0.013385
v -0.818182 1.000000 0.048590
v -0.818182 -0.472623 0.295455
v -0.818182 -0.375624 0.223277
v -0.818182 -0.267095 0.160911
v -0.818182 -0.145405 0.109523
v -0.818182 -0.010678 0.069025
v -0.818182 0.134937 0.037878
v -0.818182 0.291334 0.016008
v -0.818182 0.458512 0.003413
v -0.818182 0.636364 0.008275
v -0.818182 0.818182 0.031346
v -0.636364 -0.481835 0.288862
v -0.636364 -0.381120 0.219344
v -0.636364 -0.269337 0.159307
v -0.636364 -0.145510 0.109447
v -0.636364 -0.010678 0.069025
v -0.636364 0.134937 0.037878
v -0.636364 0.291334 0.016008
v -0.636364 0.458512 0.003413
v -0.636364 0.636364 0.000837
v -0.636364 0.818182 0.008275
v -0.454545 -0.485314 0.286373
v -0.454545 -0.382830 0.218120
v -0.454545 -0.269561 0.159146
v -0.454545 -0.145510 0.109447
v -0.454545 -0.010678 0.069025
v -0.454545 0.134937 0.037878
v -0.454545 0.291334 0.016008
v -0.454545 0.458512 0.003413
v -0.454545 0.636364 0.000000
v -0.454545 0.818182 0.000000
v -0.272727 -0.485318 0.286370
v -0.272727 -0.382830 0.218120
v -0.272727 -0.269561 0.159146
v -0.272727 -0.145510 0.109447
v -0.272727 -0.010678 0.069025
v -0.272727 0.134937 0.037878
v -0.272727 0.291334 0.016008
v -0.272727 0.458512 0.003413
v -0.272727 0.636364 0.000000
v -0.272727 0.818182 0.000000
v -0.090909 -0.485316 0.286372
v -0.090909 -0.382830 0.218120
v -0.090909 -0.269561 0.159146
v -0.090909 -0.145510 0.109447
v -0.090909 -0.010678 0.069025
v -0.090909 0.134937 0.037878
v -0.090909 0.291334 0.016008
v -0.090909 0.458512 0.003413
v -0.090909 0.636364 0.000000
v -0.090909 0.818182 0.000000
v 0.090909 -0.477196 0.296047
v 0.090909 -0.376697 0.225428
v 0.090909 -0.266144 0.163218
v 0.090909 -0.144578 0.110559
v 0.090909 -0.010678 0.069025
v 0.090909 0.134937 0.037878
v 0.090909 0.291334 0.016008
v 0.090909 0.458512 0.003413
v 0.090909 0.636364 0.000000
v 0.090909 0.818182 0.000000
v 0.272727 -0.453387 0.324418
v 0.272727 -0.355900 0.250210
v 0.272727 -0.249964 0.182498
v 0.272727 -0.134103 0.123040
v 0.272727 -0.006439 0.074075
v 0.272727 0.135175 0.038161
v 0.272727 0.291334 0.016008
v 0.272727 0.458512 0.003413
v 0.272727 0.636364 0.000042
v 0.272727 0.818182 0.001381
v 0.454545 -0.414222 0.371087
v 0.454545 -0.321496 0.291206
v 0.454545 -0.222354 0.215397
v 0.454545 -0.114187 0.146772
v 0.454545 0.005743 0.088591
v 0.454545 0.140084 0.044012
v 0.454545 0.291405 0.016092
v 0.454545 0.458512 0.004197
v 0.454545 0.636364 0.006840
v 0.454545 0.818182 0.014812
v 0.636364 -0.360645 0.434929
v 0.636364 -0.276326 0.345030
v 0.636364 -0.187527 0.256898
v 0.636364 -0.089413 0.176292
v 0.636364 0.021663 0.107561
v 0.636364 0.148515 0.054057
v 0.636364 0.293585 0.018926
v 0.636364 0.458512 0.010518
v 0.636364 0.636364 0.022826
v 0.636364 0.818182 0.041292
v 0.818182 -0.296642 0.511195
v 0.818182 -0.228939 0.401496
v 0.818182 -0.154692 0.296024
v 0.818182 -0.067534 0.202363
v 0.818182 0.035439 0.123978
v 0.818182 0.156199 0.063213
v 0.818182 0.296577 0.024577
v 0.818182 0.458512 0.018670
v 0.818182 0.636364 0.041292
v 0.818182 0.818182 0.075911
vn 0.0876 0.7010 0.7078
vn -0.4542 0.8168 0.3556
vn 0.1965 -0.1965 0.9606
vn -0.2197 -0.2197 0.9505
vn 0.1299 -0.1780 0.9754
vn 0.0377 -0.0999 0.9943
vn 0.0075 0.0167 0.9998
vn 0.0002 0.1066 0.9943
vn -0.0000 0.1739 0.9848
vn 0.0004 0.2493 0.9684
vn 0.0031 0.3417 0.9398
vn 0.0109 0.4508 0.8926
vn 0.0274 0.5611 0.8273
vn 0.0630 0.6584 0.7500
vn 0.0772 0.6793 0.7298
vn 0.0460 0.6531 0.7558
vn 0.0127 0.6472 0.7623
vn -0.0000 0.6457 0.7636
vn -0.0362 0.6470 0.7616
vn -0.1384 0.6472 0.7497
vn -0.2645 0.6407 0.7208
vn -0.3763 0.6327 0.6768
vn -0.4656 0.6396 0.6116
vn -0.4807 0.7460 0.4609
vn -0.3702 0.8460 0.3836
vn -0.2101 0.8589 0.4671
vn -0.1287 0.7980 0.5887
vn -0.0811 0.6891 0.7201
vn -0.0493 0.5435 0.8379
vn -0.0284 0.3669 0.9298
vn -0.0196 0.1524 0.9881
vn -0.0265 -0.0534 0.9982
vn -0.0579 -0.1798 0.9820
vn -0.1522 -0.2198 0.9636
vn -0.2198 -0.1522 0.9636
vn -0.1886 -0.0577 0.9804
vn -0.1197 -0.0234 0.9925
vn -0.0457 -0.0076 0.9989
vn -0.0051 -0.0013 1.0000
vn -0.0000 -0.0000 1.0000
vn 0.0002 -0.0002 1.0000
vn 0.0297 -0.0073 0.9995
vn 0.1088 -0.0376 0.9934
vn 0.1780 -0.1299 0.9754
vn 0.0602 0.6398 0.7662
vn 0.0314 0.5480 0.8359
vn 0.0130 0.4425 0.8967
vn 0.0033 0.3383 0.9410
vn 0.0003 0.2489 0.9685
vn 0.0001 0.1067 0.9943
vn 0.0089 0.0256 0.9996
vn 0.0448 -0.0723 0.9964
vn 0.1249 -0.1249 0.9843
vn 0.0391 0.6134 0.7888
vn 0.0233 0.5251 0.8507
vn 0.0092 0.4275 0.9040
vn 0.0019 0.3325 0.9431
vn 0.0001 0.2485 0.9686
vn -0.0000 0.1069 0.9943
vn 0.0057 0.0402 0.9992
vn 0.0328 -0.0234 0.9992
vn 0.0815 -0.0448 0.9957
vn 0.0105 0.6035 0.7973
vn 0.0056 0.5120 0.8590
vn 0.0016 0.4190 0.9080
vn 0.0002 0.3301 0.9440
vn -0.0000 0.2484 0.9687
vn 0.0006 0.0466 0.9989
vn 0.0068 0.0039 1.0000
vn 0.0211 -0.0088 0.9997
vn -0.0000 0.6010 0.7993
vn -0.0000 0.5088 0.8609
vn -0.0000 0.4174 0.9087
vn -0.0000 0.3299 0.9440
vn -0.0000 0.0472 0.9989
vn -0.0000 0.0096 1.0000
vn 0.0001 -0.0001 1.0000
vn -0.0333 0.6041 0.7962
vn -0.0252 0.5149 0.8569
vn -0.0145 0.4242 0.9054
vn -0.0054 0.3343 0.9425
vn -0.0009 0.2495 0.9684
vn -0.1311 0.6108 0.7808
vn -0.1107 0.5338 0.8383
vn -0.0807 0.4499 0.8894
vn -0.0477 0.3581 0.9325
vn -0.0200 0.2643 0.9642
vn -0.0045 0.1788 0.9839
vn -0.0002 0.1071 0.9942
vn -0.0000 0.0471 0.9989
vn -0.0010 0.0086 1.0000
vn -0.0035 -0.0016 1.0000
vn -0.2540 0.6164 0.7453
vn -0.2247 0.5624 0.7958
vn -0.1795 0.4951 0.8501
vn -0.1243 0.4094 0.9038
vn -0.0687 0.3081 0.9489
vn -0.0259 0.2025 0.9789
vn -0.0054 0.1122 0.9937
vn -0.0058 0.0423 0.9991
vn -0.0201 -0.0020 0.9998
vn -0.0377 -0.0111 0.9992
vn -0.3602 0.6267 0.6910
vn -0.3176 0.6051 0.7301
vn -0.2563 0.5594 0.7883
vn -0.1861 0.4825 0.8559
vn -0.1163 0.3759 0.9193
vn -0.0562 0.2506 0.9665
vn -0.0218 0.1261 0.9918
vn -0.0275 0.0236 0.9993
vn -0.0633 -0.0344 0.9974
vn -0.1027 -0.0361 0.9941
vn -0.4354 0.6614 0.6107
vn -0.3646 0.6790 0.6372
vn -0.2808 0.6479 0.7080
vn -0.1991 0.5698 0.7973
vn -0.1267 0.4523 0.8828
vn -0.0686 0.3075 0.9491
vn -0.0379 0.1414 0.9892
vn -0.0495 -0.0087 0.9987
vn -0.0982 -0.0886 0.9912
vn -0.1590 -0.0828 0.9838
vn -0.4117 0.7751 0.4793
vn -0.2928 0.7961 0.5296
vn -0.2035 0.7506 0.6287
vn -0.1361 0.6536 0.7445
vn -0.0846 0.5174 0.8515
vn -0.0481 0.3510 0.9351
vn -0.0312 0.1500 0.9882
vn -0.0411 -0.0401 0.9983
vn -0.0831 -0.1500 0.9852
vn -0.1661 -0.1661 0.9720
vt 0.909091 0.909091
vt 1.000000 0.909091
vt 1.000000 1.000000
vt 0.909091 1.000000
vt 0.000000 0.909091
vt 0.090909 0.909091
vt 0.090909 1.000000
vt 0.000000 1.000000
vt 0.181818 0.909091
vt 0.181818 1.000000
vt 0.272727 0.909091
vt 0.272727 1.000000
vt 0.363636 0.909091
vt 0.363636 1.000000
vt 0.454545 0.909091
vt 0.454545 1.000000
vt 0.545455 0.909091
vt 0.545455 1.000000
vt 0.636364 0.909091
vt 0.636364 1.000000
vt 0.727273 0.909091
vt 0.727273 1.000000
vt 0.818182 0.909091
vt 0.818182 1.000000
vt 0.000000 0.000000
vt 0.090909 0.000000
vt 0.090909 0.090909
vt 0.000000 0.090909
vt 0.090909 0.181818
vt 0.000000 0.181818
vt 0.090909 0.272727
vt 0.000000 0.272727
vt 0.090909 0.363636
vt 0.000000 0.363636
vt 0.090909 0.454545
vt 0.000000 0.454545
vt 0.090909 0.545455
vt 0.000000 0.545455
vt 0.090909 0.636364
vt 0.000000 0.636364
vt 0.090909 0.727273
vt 0.000000 0.727273
vt 0.090909 0.818182
vt 0.000000 0.818182
vt 0.181818 0.000000
vt 0.181818 0.090909
vt 0.181818 0.181818
vt 0.181818 0.272727
vt 0.181818 0.363636
vt 0.181818 0.454545
vt 0.181818 0.545455
vt 0.181818 0.636364
vt 0.181818 0.727273
vt 0.181818 0.818182
vt 0.272727 0.000000
vt 0.272727 0.090909
vt 0.272727 0.181818
vt 0.272727 0.272727
vt 0.272727 0.363636
vt 0.272727 0.454545
vt 0.272727 0.545455
vt 0.272727 0.636364
vt 0.272727 0.727273
vt 0.272727 0.818182
vt 0.363636 0.000000
vt 0.363636 0.090909
vt 0.363636 0.181818
vt 0.363636 0.272727
vt 0.363636 0.363636
vt 0.363636 0.454545
vt 0.363636 0.545455
vt 0.363636 0.636364
vt 0.363636 0.727273
vt 0.363636 0.818182
vt 0.454545 0.000000
vt 0.454545 0.090909
vt 0.454545 0.181818
vt 0.454545 0.272727
vt 0.454545 0.363636
vt 0.454545 0.454545
vt 0.454545 0.545455
vt 0.454545 0.636364
vt 0.454545 0.727273
vt 0.454545 0.818182
vt 0.545455 0.000000
vt 0.545455 0.090909
vt 0.545455 0.181818
vt 0.545455 0.272727
vt 0.545455 0.363636
vt 0.545455 0.454545
vt 0.545455 0.545455
vt 0.545455 0.636364
vt 0.545455 0.727273
vt 0.545455 0.818182
vt 0.636364 0.000000
vt 0.636364 0.090909
vt 0.636364 0.181818
vt 0.636364 0.272727
vt 0.636364 0.363636
vt 0.636364 0.454545
vt 0.636364 0.545455
vt 0.636364 0.636364
vt 0.636364 0.727273
vt 0.636364 0.818182
vt 0.727273 0.000000
vt 0.727273 0.090909
vt 0.727273 0.181818
vt 0.727273 0.272727
vt 0.727273 0.363636
vt 0.727273 0.454545
vt 0.727273 0.545455
vt 0.727273 0.636364
vt 0.727273 0.727273
vt 0.727273 0.818182
vt 0.818182 0.000000
vt 0.818182 0.090909
vt 0.818182 0.181818
vt 0.818182 0.272727
vt 0.818182 0.363636
vt 0.818182 0.454545
vt 0.818182 0.545455
vt 0.818182 0.636364
vt 0.818182 0.727273
vt 0.818182 0.818182
vt 0.909091 0.000000
vt 0.909091 0.090909
vt 0.909091 0.181818
vt 0.909091 0.272727
vt 0.909091 0.363636
vt 0.909091 0.454545
vt 0.909091 0.545455
vt 0.909091 0.636364
vt 0.909091 0.727273
vt 0.909091 0.818182
vt 1.000000 0.000000
vt 1.000000 0.090909
vt 1.000000 0.181818
vt 1.000000 0.272727
vt 1.000000 0.363636
vt 1.000000 0.454545
vt 1.000000 0.545455
vt 1.000000 0.636364
vt 1.000000 0.727273
vt 1.000000 0.818182
s 1
f 144/1/132 34/2/34 4/3/4 35/4/35
f 5/5/5 54/6/53 44/7/44 3/8/3
f 54/6/53 64/9/62 43/10/43 44/7/44
f 64/9/62 74/11/70 42/12/42 43/10/43
f 74/11/70 84/13/77 41/14/41 42/12/42
f 84/13/77 94/15/40 40/16/40 41/14/41
f 94/15/40 104/17/92 39/18/39 40/16/40
f 104/17/92 114/19/102 38/20/38 39/18/39
f 114/19/102 124/21/112 37/22/37 38/20/38
f 124/21/112 134/23/122 36/24/36 37/22/37
f 134/23/122 144/1/132 35/4/35 36/24/36
f 1/25/1 15/26/15 45/27/45 14/28/14
f 14/28/14 45/27/45 46/29/46 13/30/13
f 13/30/13 46/29/46 47/31/47 12/32/12
f 12/32/12 47/31/47 48/33/48 11/34/11
f 11/34/11 48/33/48 49/35/49 10/36/10
f 10/36/10 49/35/49 50/37/9 9/38/9
f 9/38/9 50/37/9 51/39/50 8/40/8
f 8/40/8 51/39/50 52/41/51 7/42/7
f 7/42/7 52/41/51 53/43/52 6/44/6
f 6/44/6 53/43/52 54/6/53 5/5/5
f 15/26/15 16/45/16 55/46/54 45/27/45
f 45/27/45 55/46/54 56/47/55 46/29/46
f 46/29/46 56/47/55 57/48/56 47/31/47
f 47/31/47 57/48/56 58/49/57 48/33/48
f 48/33/48 58/49/57 59/50/58 49/35/49
f 49/35/49 59/50/58 60/51/9 50/37/9
f 50/37/9 60/51/9 61/52/59 51/39/50
f 51/39/50 61/52/59 62/53/60 52/41/51
f 52/41/51 62/53/60 63/54/61 53/43/52
f 53/43/52 63/54/61 64/9/62 54/6/53
f 16/45/16 17/55/17 65/56/63 55/46/54
f 55/46/54 65/56/63 66/57/64 56/47/55
f 56/47/55 66/57/64 67/58/65 57/48/56
f 57/48/56 67/58/65 68/59/66 58/49/57
f 58/49/57 68/59/66 69/60/67 59/50/58
f 59/50/58 69/60/67 70/61/9 60/51/9
f 60/51/9 70/61/9 71/62/59 61/52/59
f 61/52/59 71/62/59 72/63/68 62/53/60
f 62/53/60 72/63/68 73/64/69 63/54/61
f 63/54/61 73/64/69 74/11/70 64/9/62
f 17/55/17 18/65/18 75/66/71 65/56/63
f 65/56/63 75/66/71 76/67/72 66/57/64
f 66/57/64 76/67/72 77/68/73 67/58/65
f 67/58/65 77/68/73 78/69/74 68/59/66
f 68/59/66 78/69/74 79/70/67 69/60/67
f 69/60/67 79/70/67 80/71/9 70/61/9
f 70/61/9 80/71/9 81/72/59 71/62/59
f 71/62/59 81/72/59 82/73/75 72/63/68
f 72/63/68 82/73/75 83/74/76 73/64/69
f 73/64/69 83/74/76 84/13/77 74/11/70
f 18/65/18 19/75/19 85/76/78 75/66/71
f 75/66/71 85/76/78 86/77/79 76/67/72
f 76/67/72 86/77/79 87/78/80 77/68/73
f 77/68/73 87/78/80 88/79/81 78/69/74
f 78/69/74 88/79/81 89/80/82 79/70/67
f 79/70/67 89/80/82 90/81/9 80/71/9
f 80/71/9 90/81/9 91/82/59 81/72/59
f 81/72/59 91/82/59 92/83/75 82/73/75
f 82/73/75 92/83/75 93/84/76 83/74/76
f 83/74/76 93/84/76 94/15/40 84/13/77
f 19/75/19 20/85/20 95/86/83 85/76/78
f 85/76/78 95/86/83 96/87/84 86/77/79
f 86/77/79 96/87/84 97/88/85 87/78/80
f 87/78/80 97/88/85 98/89/86 88/79/81
f 88/79/81 98/89/86 99/90/87 89/80/82
f 89/80/82 99/90/87 100/91/88 90/81/9
f 90/81/9 100/91/88 101/92/89 91/82/59
f 91/82/59 101/92/89 102/93/90 92/83/75
f 92/83/75 102/93/90 103/94/91 93/84/76
f 93/84/76 103/94/91 104/17/92 94/15/40
f 20/85/20 21/95/21 105/96/93 95/86/83
f 95/86/83 105/96/93 106/97/94 96/87/84
f 96/87/84 106/97/94 107/98/95 97/88/85
f 97/88/85 107/98/95 108/99/96 98/89/86
f 98/89/86 108/99/96 109/100/97 99/90/87
f 99/90/87 109/100/97 110/101/98 100/91/88
f 100/91/88 110/101/98 111/102/99 101/92/89
f 101/92/89 111/102/99 112/103/100 102/93/90
f 102/93/90 112/103/100 113/104/101 103/94/91
f 103/94/91 113/104/101 114/19/102 104/17/92
f 21/95/21 22/105/22 115/106/103 105/96/93
f 105/96/93 115/106/103 116/107/104 106/97/94
f 106/97/94 116/107/104 117/108/105 107/98/95
f 107/98/95 117/108/105 118/109/106 108/99/96
f 108/99/96 118/109/106 119/110/107 109/100/97
f 109/100/97 119/110/107 120/111/108 110/101/98
f 110/101/98 120/111/108 121/112/109 111/102/99
f 111/102/99 121/112/109 122/113/110 112/103/100
f 112/103/100 122/113/110 123/114/111 113/104/101
f 113/104/101 123/114/111 124/21/112 114/19/102
f 22/105/22 23/115/23 125/116/113 115/106/103
f 115/106/103 125/116/113 126/117/114 116/107/104
f 116/107/104 126/117/114 127/118/115 117/108/105
f 117/108/105 127/118/115 128/119/116 118/109/106
f 118/109/106 128/119/116 129/120/117 119/110/107
f 119/110/107 129/120/117 130/121/118 120/111/108
f 120/111/108 130/121/118 131/122/119 121/112/109
f 121/112/109 131/122/119 132/123/120 122/113/110
f 122/113/110 132/123/120 133/124/121 123/114/111
f 123/114/111 133/124/121 134/23/122 124/21/112
f 23/115/23 24/125/24 135/126/123 125/116/113
f 125/116/113 135/126/123 136/127/124 126/117/114
f 126/117/114 136/127/124 137/128/125 127/118/115
f 127/118/115 137/128/125 138/129/126 128/119/116
f 128/119/116 138/129/126 139/130/127 129/120/117
f 129/120/117 139/130/127 140/131/128 130/121/118
f 130/121/118 140/131/128 141/132/129 131/122/119
f 131/122/119 141/132/129 142/133/130 132/123/120
f 132/123/120 142/133/130 143/134/131 133/124/121
f 133/124/121 143/134/131 144/1/132 134/23/122
f 24/125/24 2/135/2 25/136/25 135/126/123
f 135/126/123 25/136/25 26/137/26 136/127/124
f 136/127/124 26/137/26 27/138/27 137/128/125
f 137/128/125 27/138/27 28/139/28 138/129/126
f 138/129/126 28/139/28 29/140/29 139/130/127
f 139/130/127 29/140/29 30/141/30 140/131/128
f 140/131/128 30/141/30 31/142/31 141/132/129
f 141/132/129 31/142/31 32/143/32 142/133/130
f 142/133/130 32/143/32 33/144/33 143/134/131
f 143/134/131 33/144/33 34/2/34 144/1/132
