# Blender 5.1.2
# www.blender.org
mtllib paper.mtl
o Plane
v -1.000000 -0.577023 0.363896
v 1.000000 -0.283623 0.713510
v -1.000000 1.000000 0.000000
v 1.000000 1.000000 0.000000
v -1.000000 0.818182 0.000000
v -1.000000 0.636364 0.000000
v -1.000000 0.458512 0.003413
v -1.000000 0.291334 0.016008
v -1.000000 0.134937 0.037878
v -1.000000 -0.010678 0.069025
v -1.000000 -0.145510 0.109447
v -1.000000 -0.269561 0.159146
v -1.000000 -0.382830 0.218120
v -1.000000 -0.485318 0.286370
v -0.818182 -0.577023 0.363896
v -0.636364 -0.577023 0.363896
v -0.454545 -0.577023 0.363896
v -0.272727 -0.577023 0.363896
v -0.090909 -0.577003 0.363920
v 0.090909 -0.568185 0.374427
v 0.272727 -0.543336 0.404037
v 0.454545 -0.502456 0.452750
v 0.636364 -0.445543 0.520567
v 0.818182 -0.372599 0.607487
v 1.000000 -0.252480 0.563818
v 1.000000 -0.204667 0.430419
v 1.000000 -0.140131 0.313374
v 1.000000 -0.058493 0.213137
v 1.000000 0.040964 0.130560
v 1.000000 0.159295 0.066903
v 1.000000 0.297899 0.023831
v 1.000000 0.458515 0.003416
v 1.000000 0.636364 0.000000
v 1.000000 0.818182 0.000000
v 0.818182 1.000000 0.000000
v 0.636364 1.000000 0.000000
v 0.454545 1.000000 0.000000
v 0.272727 1.000000 0.000000
v 0.090909 1.000000 0.000000
v -0.090909 1.000000 0.000000
v -0.272727 1.000000 0.000000
v -0.454545 1.000000 0.000000
v -0.636364 1.000000 0.000000
v -0.818182 1.000000 0.000000
v -0.818182 -0.485318 0.286370
v -0.818182 -0.382830 0.218120
v -0.818182 -0.269561 0.159146
v -0.818182 -0.145510 0.109447
v -0.818182 -0.010678 0.069025
v -0.818182 0.134937 0.037878
v -0.818182 0.291334 0.016008
v -0.818182 0.458512 0.003413
v -0.818182 0.636364 0.000000
v -0.818182 0.818182 0.000000
v -0.636364 -0.485318 0.286370
v -0.636364 -0.382830 0.218120
v -0.636364 -0.269561 0.159146
v -0.636364 -0.145510 0.109447
v -0.636364 -0.010678 0.069025
v -0.636364 0.134937 0.037878
v -0.636364 0.291334 0.016008
v -0.636364 0.458512 0.003413
v -0.636364 0.636364 0.000000
v -0.636364 0.818182 0.000000
v -0.454545 -0.485318 0.286370
v -0.454545 -0.382830 0.218120
v -0.454545 -0.269561 0.159146
v -0.454545 -0.145510 0.109447
v -0.454545 -0.010678 0.069025
v -0.454545 0.134937 0.037878
v -0.454545 0.291334 0.016008
v -0.454545 0.458512 0.003413
v -0.454545 0.636364 0.000000
v -0.454545 0.818182 0.000000
v -0.272727 -0.485318 0.286370
v -0.272727 -0.382830 0.218120
v -0.272727 -0.269561 0.159146
v -0.272727 -0.145510 0.109447
v -0.272727 -0.010678 0.069025
v -0.272727 0.134937 0.037878
v -0.272727 0.291334 0.016008
v -0.272727 0.458512 0.003413
v -0.272727 0.636364 0.000000
v -0.272727 0.818182 0.000000
v -0.090909 -0.485316 0.286372
v -0.090909 -0.382830 0.218120
v -0.090909 -0.269561 0.159146
v -0.090909 -0.145510 0.109447
v -0.090909 -0.010678 0.069025
v -0.090909 0.134937 0.037878
v -0.090909 0.291334 0.016008
v -0.090909 0.458512 0.003413
v -0.090909 0.636364 0.000000
v -0.090909 0.818182 0.000000
v 0.090909 -0.477196 0.296047
v 0.090909 -0.376697 0.225428
v 0.090909 -0.266144 0.163218
v 0.090909 -0.144578 0.110559
v 0.090909 -0.010678 0.069025
v 0.090909 0.134937 0.037878
v 0.090909 0.291334 0.016008
v 0.090909 0.458512 0.003413
v 0.090909 0.636364 0.000000
v 0.090909 0.818182 0.000000
v 0.272727 -0.453387 0.324418
v 0.272727 -0.355900 0.250210
v 0.272727 -0.249964 0.182498
v 0.272727 -0.134103 0.123040
v 0.272727 -0.006439 0.074075
v 0.272727 0.135175 0.038161
v 0.272727 0.291334 0.016008
v 0.272727 0.458512 0.003413
v 0.272727 0.636364 0.000000
v 0.272727 0.818182 0.000000
v 0.454545 -0.414222 0.371087
v 0.454545 -0.321496 0.291206
v 0.454545 -0.222354 0.215397
v 0.454545 -0.114187 0.146772
v 0.454545 0.005743 0.088591
v 0.454545 0.140084 0.044012
v 0.454545 0.291405 0.016092
v 0.454545 0.458512 0.003413
v 0.454545 0.636364 0.000000
v 0.454545 0.818182 0.000000
v 0.636364 -0.360645 0.434929
v 0.636364 -0.276326 0.345030
v 0.636364 -0.187527 0.256898
v 0.636364 -0.089413 0.176292
v 0.636364 0.021663 0.107561
v 0.636364 0.148515 0.054057
v 0.636364 0.293585 0.018690
v 0.636364 0.458512 0.003413
v 0.636364 0.636364 0.000000
v 0.636364 0.818182 0.000000
v 0.818182 -0.296642 0.511195
v 0.818182 -0.228939 0.401496
v 0.818182 -0.154692 0.296024
v 0.818182 -0.067534 0.202363
v 0.818182 0.035439 0.123978
v 0.818182 0.156199 0.063213
v 0.818182 0.296577 0.022255
v 0.818182 0.458512 0.003413
v 0.818182 0.636364 0.000000
v 0.818182 0.818182 0.000000
vn -0.0000 0.6456 0.7637
vn -0.4542 0.8168 0.3556
vn -0.0000 -0.0000 1.0000
vn -0.0000 0.0096 1.0000
vn -0.0000 0.0472 0.9989
vn -0.0000 0.1069 0.9943
vn -0.0000 0.1739 0.9848
vn -0.0000 0.2484 0.9687
vn -0.0000 0.3299 0.9440
vn -0.0000 0.4174 0.9087
vn -0.0000 0.5088 0.8609
vn -0.0000 0.6009 0.7993
vn -0.0000 0.6456 0.7636
vn -0.0362 0.6470 0.7616
vn -0.1384 0.6472 0.7497
vn -0.2645 0.6407 0.7208
vn -0.3763 0.6327 0.6768
vn -0.4656 0.6396 0.6116
vn -0.4807 0.7460 0.4609
vn -0.3702 0.8460 0.3836
vn -0.2101 0.8589 0.4671
vn -0.1287 0.7980 0.5887
vn -0.0811 0.6891 0.7201
vn -0.0493 0.5435 0.8379
vn -0.0267 0.3761 0.9262
vn -0.0111 0.2051 0.9787
vn -0.0024 0.0701 0.9975
vn -0.0333 0.6041 0.7962
vn -0.0252 0.5149 0.8569
vn -0.0145 0.4242 0.9054
vn -0.0054 0.3343 0.9425
vn -0.0009 0.2495 0.9684
vn -0.1311 0.6108 0.7808
vn -0.1107 0.5338 0.8383
vn -0.0807 0.4499 0.8894
vn -0.0477 0.3581 0.9325
vn -0.0200 0.2643 0.9642
vn -0.0045 0.1788 0.9839
vn -0.0002 0.1071 0.9942
vn -0.2540 0.6164 0.7453
vn -0.2247 0.5624 0.7958
vn -0.1795 0.4951 0.8501
vn -0.1243 0.4094 0.9038
vn -0.0687 0.3081 0.9489
vn -0.0259 0.2025 0.9789
vn -0.0049 0.1128 0.9936
vn -0.0001 0.0472 0.9989
vn -0.3602 0.6267 0.6910
vn -0.3176 0.6051 0.7301
vn -0.2563 0.5594 0.7883
vn -0.1861 0.4825 0.8559
vn -0.1163 0.3759 0.9193
vn -0.0560 0.2508 0.9664
vn -0.0166 0.1326 0.9910
vn -0.0020 0.0494 0.9988
vn -0.4354 0.6614 0.6107
vn -0.3646 0.6790 0.6372
vn -0.2808 0.6479 0.7080
vn -0.1991 0.5698 0.7973
vn -0.1267 0.4523 0.8828
vn -0.0671 0.3097 0.9485
vn -0.0250 0.1642 0.9861
vn -0.0046 0.0566 0.9984
vn -0.4117 0.7751 0.4793
vn -0.2928 0.7961 0.5296
vn -0.2035 0.7506 0.6287
vn -0.1361 0.6536 0.7445
vn -0.0846 0.5174 0.8515
vn -0.0459 0.3576 0.9328
vn -0.0185 0.1933 0.9810
vn -0.0038 0.0658 0.9978
vt 0.909091 0.909091
vt 1.000000 0.909091
vt 1.000000 1.000000
vt 0.909091 1.000000
vt 0.000000 0.909091
vt 0.090909 0.909091
vt 0.090909 1.000000
vt 0.000000 1.000000
vt 0.181818 0.909091
vt 0.181818 1.000000
vt 0.272727 0.909091
vt 0.272727 1.000000
vt 0.363636 0.909091
vt 0.363636 1.000000
vt 0.454545 0.909091
vt 0.454545 1.000000
vt 0.545455 0.909091
vt 0.545455 1.000000
vt 0.636364 0.909091
vt 0.636364 1.000000
vt 0.727273 0.909091
vt 0.727273 1.000000
vt 0.818182 0.909091
vt 0.818182 1.000000
vt 0.000000 0.000000
vt 0.090909 0.000000
vt 0.090909 0.090909
vt 0.000000 0.090909
vt 0.090909 0.181818
vt 0.000000 0.181818
vt 0.090909 0.272727
vt 0.000000 0.272727
vt 0.090909 0.363636
vt 0.000000 0.363636
vt 0.090909 0.454545
vt 0.000000 0.454545
vt 0.090909 0.545455
vt 0.000000 0.545455
vt 0.090909 0.636364
vt 0.000000 0.636364
vt 0.090909 0.727273
vt 0.000000 0.727273
vt 0.090909 0.818182
vt 0.000000 0.818182
vt 0.181818 0.000000
vt 0.181818 0.090909
vt 0.181818 0.181818
vt 0.181818 0.272727
vt 0.181818 0.363636
vt 0.181818 0.454545
vt 0.181818 0.545455
vt 0.181818 0.636364
vt 0.181818 0.727273
vt 0.181818 0.818182
vt 0.272727 0.000000
vt 0.272727 0.090909
vt 0.272727 0.181818
vt 0.272727 0.272727
vt 0.272727 0.363636
vt 0.272727 0.454545
vt 0.272727 0.545455
vt 0.272727 0.636364
vt 0.272727 0.727273
vt 0.272727 0.818182
vt 0.363636 0.000000
vt 0.363636 0.090909
vt 0.363636 0.181818
vt 0.363636 0.272727
vt 0.363636 0.363636
vt 0.363636 0.454545
vt 0.363636 0.545455
vt 0.363636 0.636364
vt 0.363636 0.727273
vt 0.363636 0.818182
vt 0.454545 0.000000
vt 0.454545 0.090909
vt 0.454545 0.181818
vt 0.454545 0.272727
vt 0.454545 0.363636
vt 0.454545 0.454545
vt 0.454545 0.545455
vt 0.454545 0.636364
vt 0.454545 0.727273
vt 0.454545 0.818182
vt 0.545455 0.000000
vt 0.545455 0.090909
vt 0.545455 0.181818
vt 0.545455 0.272727
vt 0.545455 0.363636
vt 0.545455 0.454545
vt 0.545455 0.545455
vt 0.545455 0.636364
vt 0.545455 0.727273
vt 0.545455 0.818182
vt 0.636364 0.000000
vt 0.636364 0.090909
vt 0.636364 0.181818
vt 0.636364 0.272727
vt 0.636364 0.363636
vt 0.636364 0.454545
vt 0.636364 0.545455
vt 0.636364 0.636364
vt 0.636364 0.727273
vt 0.636364 0.818182
vt 0.727273 0.000000
vt 0.727273 0.090909
vt 0.727273 0.181818
vt 0.727273 0.272727
vt 0.727273 0.363636
vt 0.727273 0.454545
vt 0.727273 0.545455
vt 0.727273 0.636364
vt 0.727273 0.727273
vt 0.727273 0.818182
vt 0.818182 0.000000
vt 0.818182 0.090909
vt 0.818182 0.181818
vt 0.818182 0.272727
vt 0.818182 0.363636
vt 0.818182 0.454545
vt 0.818182 0.545455
vt 0.818182 0.636364
vt 0.818182 0.727273
vt 0.818182 0.818182
vt 0.909091 0.000000
vt 0.909091 0.090909
vt 0.909091 0.181818
vt 0.909091 0.272727
vt 0.909091 0.363636
vt 0.909091 0.454545
vt 0.909091 0.545455
vt 0.909091 0.636364
vt 0.909091 0.727273
vt 0.909091 0.818182
vt 1.000000 0.000000
vt 1.000000 0.090909
vt 1.000000 0.181818
vt 1.000000 0.272727
vt 1.000000 0.363636
vt 1.000000 0.454545
vt 1.000000 0.545455
vt 1.000000 0.636364
vt 1.000000 0.727273
vt 1.000000 0.818182
s 1
f 144/1/3 34/2/3 4/3/3 35/4/3
f 5/5/3 54/6/3 44/7/3 3/8/3
f 54/6/3 64/9/3 43/10/3 44/7/3
f 64/9/3 74/11/3 42/12/3 43/10/3
f 74/11/3 84/13/3 41/14/3 42/12/3
f 84/13/3 94/15/3 40/16/3 41/14/3
f 94/15/3 104/17/3 39/18/3 40/16/3
f 104/17/3 114/19/3 38/20/3 39/18/3
f 114/19/3 124/21/3 37/22/3 38/20/3
f 124/21/3 134/23/3 36/24/3 37/22/3
f 134/23/3 144/1/3 35/4/3 36/24/3
f 1/25/1 15/26/1 45/27/12 14/28/12
f 14/28/12 45/27/12 46/29/11 13/30/11
f 13/30/11 46/29/11 47/31/10 12/32/10
f 12/32/10 47/31/10 48/33/9 11/34/9
f 11/34/9 48/33/9 49/35/8 10/36/8
f 10/36/8 49/35/8 50/37/7 9/38/7
f 9/38/7 50/37/7 51/39/6 8/40/6
f 8/40/6 51/39/6 52/41/5 7/42/5
f 7/42/5 52/41/5 53/43/4 6/44/4
f 6/44/4 53/43/4 54/6/3 5/5/3
f 15/26/1 16/45/1 55/46/12 45/27/12
f 45/27/12 55/46/12 56/47/11 46/29/11
f 46/29/11 56/47/11 57/48/10 47/31/10
f 47/31/10 57/48/10 58/49/9 48/33/9
f 48/33/9 58/49/9 59/50/8 49/35/8
f 49/35/8 59/50/8 60/51/7 50/37/7
f 50/37/7 60/51/7 61/52/6 51/39/6
f 51/39/6 61/52/6 62/53/5 52/41/5
f 52/41/5 62/53/5 63/54/4 53/43/4
f 53/43/4 63/54/4 64/9/3 54/6/3
f 16/45/1 17/55/1 65/56/12 55/46/12
f 55/46/12 65/56/12 66/57/11 56/47/11
f 56/47/11 66/57/11 67/58/10 57/48/10
f 57/48/10 67/58/10 68/59/9 58/49/9
f 58/49/9 68/59/9 69/60/8 59/50/8
f 59/50/8 69/60/8 70/61/7 60/51/7
f 60/51/7 70/61/7 71/62/6 61/52/6
f 61/52/6 71/62/6 72/63/5 62/53/5
f 62/53/5 72/63/5 73/64/4 63/54/4
f 63/54/4 73/64/4 74/11/3 64/9/3
f 17/55/1 18/65/13 75/66/12 65/56/12
f 65/56/12 75/66/12 76/67/11 66/57/11
f 66/57/11 76/67/11 77/68/10 67/58/10
f 67/58/10 77/68/10 78/69/9 68/59/9
f 68/59/9 78/69/9 79/70/8 69/60/8
f 69/60/8 79/70/8 80/71/7 70/61/7
f 70/61/7 80/71/7 81/72/6 71/62/6
f 71/62/6 81/72/6 82/73/5 72/63/5
f 72/63/5 82/73/5 83/74/4 73/64/4
f 73/64/4 83/74/4 84/13/3 74/11/3
f 18/65/13 19/75/14 85/76/28 75/66/12
f 75/66/12 85/76/28 86/77/29 76/67/11
f 76/67/11 86/77/29 87/78/30 77/68/10
f 77/68/10 87/78/30 88/79/31 78/69/9
f 78/69/9 88/79/31 89/80/32 79/70/8
f 79/70/8 89/80/32 90/81/7 80/71/7
f 80/71/7 90/81/7 91/82/6 81/72/6
f 81/72/6 91/82/6 92/83/5 82/73/5
f 82/73/5 92/83/5 93/84/4 83/74/4
f 83/74/4 93/84/4 94/15/3 84/13/3
f 19/75/14 20/85/15 95/86/33 85/76/28
f 85/76/28 95/86/33 96/87/34 86/77/29
f 86/77/29 96/87/34 97/88/35 87/78/30
f 87/78/30 97/88/35 98/89/36 88/79/31
f 88/79/31 98/89/36 99/90/37 89/80/32
f 89/80/32 99/90/37 100/91/38 90/81/7
f 90/81/7 100/91/38 101/92/39 91/82/6
f 91/82/6 101/92/39 102/93/5 92/83/5
f 92/83/5 102/93/5 103/94/4 93/84/4
f 93/84/4 103/94/4 104/17/3 94/15/3
f 20/85/15 21/95/16 105/96/40 95/86/33
f 95/86/33 105/96/40 106/97/41 96/87/34
f 96/87/34 106/97/41 107/98/42 97/88/35
f 97/88/35 107/98/42 108/99/43 98/89/36
f 98/89/36 108/99/43 109/100/44 99/90/37
f 99/90/37 109/100/44 110/101/45 100/91/38
f 100/91/38 110/101/45 111/102/46 101/92/39
f 101/92/39 111/102/46 112/103/47 102/93/5
f 102/93/5 112/103/47 113/104/4 103/94/4
f 103/94/4 113/104/4 114/19/3 104/17/3
f 21/95/16 22/105/17 115/106/48 105/96/40
f 105/96/40 115/106/48 116/107/49 106/97/41
f 106/97/41 116/107/49 117/108/50 107/98/42
f 107/98/42 117/108/50 118/109/51 108/99/43
f 108/99/43 118/109/51 119/110/52 109/100/44
f 109/100/44 119/110/52 120/111/53 110/101/45
f 110/101/45 120/111/53 121/112/54 111/102/46
f 111/102/46 121/112/54 122/113/55 112/103/47
f 112/103/47 122/113/55 123/114/4 113/104/4
f 113/104/4 123/114/4 124/21/3 114/19/3
f 22/105/17 23/115/18 125/116/56 115/106/48
f 115/106/48 125/116/56 126/117/57 116/107/49
f 116/107/49 126/117/57 127/118/58 117/108/50
f 117/108/50 127/118/58 128/119/59 118/109/51
f 118/109/51 128/119/59 129/120/60 119/110/52
f 119/110/52 129/120/60 130/121/61 120/111/53
f 120/111/53 130/121/61 131/122/62 121/112/54
f 121/112/54 131/122/62 132/123/63 122/113/55
f 122/113/55 132/123/63 133/124/4 123/114/4
f 123/114/4 133/124/4 134/23/3 124/21/3
f 23/115/18 24/125/19 135/126/64 125/116/56
f 125/116/56 135/126/64 136/127/65 126/117/57
f 126/117/57 136/127/65 137/128/66 127/118/58
f 127/118/58 137/128/66 138/129/67 128/119/59
f 128/119/59 138/129/67 139/130/68 129/120/60
f 129/120/60 139/130/68 140/131/69 130/121/61
f 130/121/61 140/131/69 141/132/70 131/122/62
f 131/122/62 141/132/70 142/133/71 132/123/63
f 132/123/63 142/133/71 143/134/4 133/124/4
f 133/124/4 143/134/4 144/1/3 134/23/3
f 24/125/19 2/135/2 25/136/20 135/126/64
f 135/126/64 25/136/20 26/137/21 136/127/65
f 136/127/65 26/137/21 27/138/22 137/128/66
f 137/128/66 27/138/22 28/139/23 138/129/67
f 138/129/67 28/139/23 29/140/24 139/130/68
f 139/130/68 29/140/24 30/141/25 140/131/69
f 140/131/69 30/141/25 31/142/26 141/132/70
f 141/132/70 31/142/26 32/143/27 142/133/71
f 142/133/71 32/143/27 33/144/4 143/134/4
f 143/134/4 33/144/4 34/2/3 144/1/3
