# Blender 5.1.2
# www.blender.org
o Sphere
v 0.000000 0.500000 0.000000
v 0.000000 0.461940 0.126109
v 0.000000 0.191342 0.304455
v -0.000000 0.191342 1.011940
v 0.191342 0.461940 0.000000
v 0.176777 0.426777 0.126109
v 0.135299 0.326641 0.233019
v 0.073223 0.176777 0.304455
v 0.353553 0.353553 0.000000
v 0.326641 0.326641 0.126109
v 0.250000 0.250000 0.233019
v 0.135299 0.135299 0.304455
v 0.461940 0.191342 0.000000
v 0.426777 0.176777 0.126109
v 0.326641 0.135299 0.233019
v 0.176777 0.073223 0.304455
v 0.500000 -0.000000 0.000000
v 0.461940 -0.000000 0.126109
v 0.353553 -0.000000 0.233019
v 0.191342 -0.000000 0.304455
v 0.461940 -0.191342 0.000000
v 0.426777 -0.176777 0.126109
v 0.326641 -0.135299 0.233019
v 0.176777 -0.073223 0.304455
v 0.353553 -0.353554 0.000000
v 0.326641 -0.326641 0.126109
v 0.250000 -0.250000 0.233019
v 0.135299 -0.135299 0.304455
v 0.191342 -0.461940 0.000000
v 0.176777 -0.426777 0.126109
v 0.135299 -0.326641 0.233019
v 0.073223 -0.176777 0.304455
v -0.000000 -0.500000 0.000000
v -0.000000 -0.461940 0.126109
v -0.000000 -0.353553 0.233019
v -0.000000 -0.191342 0.304455
v -0.191342 -0.461940 0.000000
v -0.176777 -0.426777 0.126109
v -0.135299 -0.326641 0.233019
v -0.073223 -0.176777 0.304454
v -0.353554 -0.353553 0.000000
v -0.326641 -0.326641 0.126109
v -0.250000 -0.250000 0.233019
v -0.135299 -0.135299 0.304455
v -0.461940 -0.191342 0.000000
v -0.426777 -0.176777 0.126109
v -0.326641 -0.135299 0.233019
v -0.176777 -0.073223 0.304455
v -0.500000 0.000000 0.000000
v -0.461940 0.000000 0.126109
v -0.353553 0.000000 0.233019
v -0.191342 0.000000 0.304455
v -0.461940 0.191342 0.000000
v -0.426777 0.176777 0.126109
v -0.326641 0.135299 0.233019
v -0.176777 0.073223 0.304455
v -0.353553 0.353554 0.000000
v -0.326640 0.326641 0.126109
v -0.250000 0.250000 0.233019
v -0.135299 0.135299 0.304455
v -0.191341 0.461940 0.000000
v -0.176776 0.426777 0.126109
v -0.135299 0.326641 0.233019
v -0.073223 0.176777 0.304455
v 0.000000 0.353553 0.233019
v 0.073223 0.176777 1.011940
v 0.135299 0.135299 1.011940
v 0.176777 0.073223 1.011940
v 0.191342 -0.000000 1.011940
v 0.176777 -0.073223 1.011940
v 0.135299 -0.135299 1.011940
v 0.073223 -0.176777 1.011940
v -0.000000 -0.191342 1.011940
v -0.073223 -0.176777 1.011940
v -0.135299 -0.135299 1.011940
v -0.176777 -0.073223 1.011940
v -0.191342 0.000000 1.011940
v -0.176777 0.073223 1.011940
v -0.135299 0.135299 1.011940
v -0.073223 0.176777 1.011940
v -0.000000 0.000000 0.968445
v -0.000000 0.309500 1.066543
v -0.000000 0.335000 1.127356
v -0.000000 0.309500 1.188169
v -0.000000 0.128199 1.274170
v -0.000000 0.000000 1.286267
v 0.049060 0.118440 0.980541
v 0.090650 0.218849 1.014989
v 0.118440 0.285940 1.066543
v 0.128199 0.309500 1.127356
v 0.118440 0.285940 1.188169
v 0.090650 0.218849 1.239723
v 0.049060 0.118440 1.274170
v 0.090650 0.090650 0.980541
v 0.167500 0.167500 1.014989
v 0.218849 0.218849 1.066543
v 0.236881 0.236881 1.127356
v 0.218849 0.218849 1.188169
v 0.167500 0.167500 1.239723
v 0.090650 0.090650 1.274170
v 0.118440 0.049060 0.980541
v 0.218849 0.090650 1.014989
v 0.285940 0.118440 1.066543
v 0.309500 0.128199 1.127356
v 0.285940 0.118440 1.188169
v 0.218849 0.090650 1.239723
v 0.118440 0.049060 1.274170
v 0.128199 0.000000 0.980541
v 0.236881 0.000000 1.014989
v 0.309500 -0.000000 1.066543
v 0.335000 -0.000000 1.127356
v 0.309500 0.000000 1.188169
v 0.236881 0.000000 1.239723
v 0.128199 0.000000 1.274170
v 0.118440 -0.049060 0.980541
v 0.218849 -0.090650 1.014989
v 0.285940 -0.118440 1.066543
v 0.309500 -0.128199 1.127356
v 0.285940 -0.118440 1.188169
v 0.218849 -0.090650 1.239723
v 0.118440 -0.049060 1.274170
v 0.090650 -0.090650 0.980541
v 0.167500 -0.167500 1.014989
v 0.218849 -0.218849 1.066543
v 0.236881 -0.236881 1.127356
v 0.218849 -0.218849 1.188169
v 0.167500 -0.167500 1.239723
v 0.090650 -0.090650 1.274170
v 0.049060 -0.118440 0.980541
v 0.090650 -0.218849 1.014989
v 0.118440 -0.285940 1.066543
v 0.128199 -0.309500 1.127356
v 0.118440 -0.285940 1.188169
v 0.090650 -0.218849 1.239723
v 0.049060 -0.118440 1.274170
v -0.000000 -0.128199 0.980541
v -0.000000 -0.236881 1.014989
v -0.000000 -0.309500 1.066543
v -0.000000 -0.335000 1.127356
v -0.000000 -0.309500 1.188169
v -0.000000 -0.236881 1.239723
v -0.000000 -0.128199 1.274170
v -0.049060 -0.118440 0.980541
v -0.090650 -0.218849 1.014989
v -0.118440 -0.285940 1.066543
v -0.128199 -0.309500 1.127356
v -0.118440 -0.285940 1.188169
v -0.090650 -0.218849 1.239723
v -0.049060 -0.118440 1.274170
v -0.090650 -0.090650 0.980541
v -0.167500 -0.167500 1.014989
v -0.218849 -0.218849 1.066543
v -0.236881 -0.236881 1.127356
v -0.218849 -0.218849 1.188169
v -0.167500 -0.167500 1.239723
v -0.090650 -0.090650 1.274170
v -0.118440 -0.049060 0.980541
v -0.218849 -0.090650 1.014989
v -0.285940 -0.118440 1.066543
v -0.309500 -0.128199 1.127356
v -0.285940 -0.118440 1.188169
v -0.218849 -0.090650 1.239723
v -0.118440 -0.049060 1.274170
v -0.128199 0.000000 0.980541
v -0.236881 0.000000 1.014989
v -0.309500 0.000000 1.066543
v -0.335000 0.000000 1.127356
v -0.309500 0.000000 1.188169
v -0.236881 0.000000 1.239723
v -0.128199 0.000000 1.274170
v -0.118440 0.049060 0.980541
v -0.218849 0.090650 1.014989
v -0.285940 0.118441 1.066543
v -0.309500 0.128199 1.127356
v -0.285940 0.118441 1.188169
v -0.218849 0.090650 1.239723
v -0.118440 0.049060 1.274170
v -0.090650 0.090650 0.980541
v -0.167500 0.167500 1.014989
v -0.218849 0.218849 1.066543
v -0.236881 0.236881 1.127356
v -0.218849 0.218849 1.188169
v -0.167500 0.167500 1.239723
v -0.090650 0.090650 1.274170
v -0.049060 0.118440 0.980541
v -0.090650 0.218849 1.014989
v -0.118440 0.285940 1.066543
v -0.128199 0.309500 1.127356
v -0.118440 0.285940 1.188169
v -0.090650 0.218849 1.239723
v -0.049060 0.118440 1.274170
v 0.000000 0.128199 0.980541
v 0.000000 0.236881 1.014989
v 0.000000 0.236881 1.239723
vn -0.0000 0.8641 0.5033
vn 0.3307 0.7983 0.5033
vn 0.3189 0.7699 -0.5527
vn -0.0000 0.8334 -0.5527
vn -0.9239 -0.3827 -0.0000
vn -0.6894 -0.2856 0.6657
vn -0.7462 -0.0000 0.6657
vn -1.0000 -0.0000 -0.0000
vn -0.0000 0.5770 0.8168
vn 0.2208 0.5330 0.8168
vn -0.0000 0.4030 0.9152
vn 0.1542 0.3724 0.9152
vn -0.0000 1.0000 -0.0000
vn -0.0000 0.7462 0.6657
vn 0.2856 0.6894 0.6657
vn 0.3827 0.9239 -0.0000
vn 0.4080 0.4080 0.8168
vn 0.6110 0.6110 0.5033
vn 0.2850 0.2850 0.9152
vn 0.5893 0.5893 -0.5527
vn 0.3724 0.1542 0.9152
vn 0.5330 0.2208 0.8168
vn 0.7983 0.3307 0.5033
vn 0.7699 0.3189 -0.5527
vn -0.6894 0.2856 0.6657
vn -0.9239 0.3827 -0.0000
vn 0.4030 -0.0000 0.9152
vn 0.5770 -0.0000 0.8168
vn 0.8641 -0.0000 0.5033
vn 0.8334 -0.0000 -0.5527
vn -0.3827 0.9239 -0.0000
vn -0.2856 0.6894 0.6657
vn -0.5276 0.5276 0.6657
vn -0.7071 0.7071 -0.0000
vn 0.5330 -0.2208 0.8168
vn 0.7983 -0.3307 0.5033
vn 0.3724 -0.1542 0.9152
vn 0.7699 -0.3189 -0.5527
vn 0.4080 -0.4080 0.8168
vn 0.6110 -0.6110 0.5033
vn 0.2850 -0.2850 0.9152
vn 0.5893 -0.5893 -0.5527
vn 0.1542 -0.3724 0.9152
vn 0.2208 -0.5330 0.8168
vn 0.3307 -0.7983 0.5033
vn 0.3189 -0.7699 -0.5527
vn 0.9239 -0.3827 -0.0000
vn 0.6894 -0.2856 0.6657
vn 0.5276 -0.5276 0.6657
vn 0.7071 -0.7071 -0.0000
vn -0.0000 -0.8641 0.5033
vn -0.0000 -0.8334 -0.5527
vn 0.5276 0.5276 0.6657
vn 0.7071 0.7071 -0.0000
vn -0.0000 -0.5770 0.8168
vn -0.0000 -0.4030 0.9152
vn 0.3827 -0.9239 -0.0000
vn 0.2856 -0.6894 0.6657
vn -0.0000 -0.7462 0.6657
vn -0.0000 -1.0000 -0.0000
vn -0.2208 -0.5330 0.8168
vn -0.3307 -0.7983 0.5033
vn -0.1542 -0.3724 0.9152
vn -0.3189 -0.7699 -0.5527
vn -0.2850 -0.2850 0.9152
vn -0.4080 -0.4080 0.8168
vn -0.6110 -0.6110 0.5033
vn -0.5893 -0.5893 -0.5527
vn 0.6894 0.2856 0.6657
vn 0.9239 0.3827 -0.0000
vn -0.3724 -0.1542 0.9152
vn -0.5330 -0.2208 0.8168
vn -0.7983 -0.3307 0.5033
vn -0.7699 -0.3189 -0.5527
vn 0.7462 -0.0000 0.6657
vn 1.0000 -0.0000 -0.0000
vn -0.5770 -0.0000 0.8168
vn -0.8641 -0.0000 0.5033
vn -0.4030 -0.0000 0.9152
vn -0.8334 -0.0000 -0.5527
vn -0.5330 0.2208 0.8168
vn -0.7983 0.3307 0.5033
vn -0.3724 0.1542 0.9152
vn -0.7699 0.3189 -0.5527
vn -0.2850 0.2850 0.9152
vn -0.4080 0.4080 0.8168
vn -0.6110 0.6110 0.5033
vn -0.5893 0.5893 -0.5527
vn -0.5276 -0.5276 0.6657
vn -0.2856 -0.6894 0.6657
vn -0.1542 0.3724 0.9152
vn -0.2208 0.5330 0.8168
vn -0.3307 0.7983 0.5033
vn -0.3189 0.7699 -0.5527
vn -0.3827 -0.9239 -0.0000
vn -0.7071 -0.7071 -0.0000
vn -0.0000 0.2118 0.9773
vn 0.0811 0.1957 0.9773
vn 0.1764 0.4260 0.8874
vn -0.0000 0.4611 0.8874
vn -0.0000 0.7932 0.6089
vn 0.3036 0.7329 0.6089
vn -0.0000 0.7932 -0.6089
vn 0.3036 0.7329 -0.6089
vn 0.1764 0.4260 -0.8874
vn -0.0000 0.4611 -0.8874
vn -0.0000 0.2118 -0.9773
vn 0.0811 0.1957 -0.9773
vn -0.0000 -0.0000 -1.0000
vn -0.0000 -0.0000 1.0000
vn 0.5609 0.5609 -0.6089
vn 0.3260 0.3260 -0.8874
vn 0.1498 0.1498 -0.9773
vn 0.1498 0.1498 0.9773
vn 0.3260 0.3260 0.8874
vn 0.5609 0.5609 0.6089
vn 0.1957 0.0811 0.9773
vn 0.4260 0.1764 0.8874
vn 0.7329 0.3036 0.6089
vn 0.7329 0.3036 -0.6089
vn 0.4260 0.1764 -0.8874
vn 0.1957 0.0811 -0.9773
vn 0.4611 -0.0000 -0.8874
vn 0.2118 -0.0000 -0.9773
vn 0.2118 -0.0000 0.9773
vn 0.4611 -0.0000 0.8874
vn 0.7932 -0.0000 0.6089
vn 0.7932 -0.0000 -0.6089
vn 0.1957 -0.0811 0.9773
vn 0.4260 -0.1764 0.8874
vn 0.7329 -0.3036 0.6089
vn 0.7329 -0.3036 -0.6089
vn 0.4260 -0.1764 -0.8874
vn 0.1957 -0.0811 -0.9773
vn 0.1498 -0.1498 -0.9773
vn 0.1498 -0.1498 0.9773
vn 0.3260 -0.3260 0.8874
vn 0.5609 -0.5609 0.6089
vn 0.5609 -0.5609 -0.6089
vn 0.3260 -0.3260 -0.8874
vn 0.1764 -0.4260 0.8874
vn 0.3036 -0.7329 0.6089
vn 0.3036 -0.7329 -0.6089
vn 0.1764 -0.4260 -0.8874
vn 0.0811 -0.1957 -0.9773
vn 0.0811 -0.1957 0.9773
vn -0.0000 -0.2118 0.9773
vn -0.0000 -0.4611 0.8874
vn -0.0000 -0.7932 0.6089
vn -0.0000 -0.7932 -0.6089
vn -0.0000 -0.4611 -0.8874
vn -0.0000 -0.2118 -0.9773
vn -0.3036 -0.7329 0.6089
vn -0.3036 -0.7329 -0.6089
vn -0.1764 -0.4260 -0.8874
vn -0.0811 -0.1957 -0.9773
vn -0.0811 -0.1957 0.9773
vn -0.1764 -0.4260 0.8874
vn -0.1498 -0.1498 0.9773
vn -0.3260 -0.3260 0.8874
vn -0.5609 -0.5609 0.6089
vn -0.5609 -0.5609 -0.6089
vn -0.3260 -0.3260 -0.8874
vn -0.1498 -0.1498 -0.9773
vn -0.7329 -0.3036 -0.6089
vn -0.4260 -0.1764 -0.8874
vn -0.1957 -0.0811 -0.9773
vn -0.1957 -0.0811 0.9773
vn -0.4260 -0.1764 0.8874
vn -0.7329 -0.3036 0.6089
vn -0.2118 -0.0000 0.9773
vn -0.4611 -0.0000 0.8874
vn -0.7932 -0.0000 0.6089
vn -0.7932 -0.0000 -0.6089
vn -0.4611 -0.0000 -0.8874
vn -0.2118 -0.0000 -0.9773
vn -0.7329 0.3036 -0.6089
vn -0.4260 0.1764 -0.8874
vn -0.1957 0.0811 -0.9773
vn -0.1957 0.0811 0.9773
vn -0.4260 0.1764 0.8874
vn -0.7329 0.3036 0.6089
vn -0.1498 0.1498 0.9773
vn -0.3260 0.3260 0.8874
vn -0.5609 0.5609 0.6089
vn -0.5609 0.5609 -0.6089
vn -0.3260 0.3260 -0.8874
vn -0.1498 0.1498 -0.9773
vn -0.1764 0.4260 -0.8874
vn -0.0811 0.1957 -0.9773
vn -0.0811 0.1957 0.9773
vn -0.1764 0.4260 0.8874
vn -0.3036 0.7329 0.6089
vn -0.3036 0.7329 -0.6089
vt 0.750000 0.375000
vt 0.687500 0.375000
vt 0.687500 0.500000
vt 0.750000 0.500000
vt 0.062500 0.125000
vt 0.000000 0.125000
vt 0.750000 0.250000
vt 0.687500 0.250000
vt 0.750000 0.125000
vt 0.687500 0.125000
vt 0.625000 0.250000
vt 0.625000 0.375000
vt 0.625000 0.125000
vt 0.625000 0.500000
vt 0.562500 0.125000
vt 0.562500 0.250000
vt 0.562500 0.375000
vt 0.562500 0.500000
vt 1.000000 0.125000
vt 0.937500 0.125000
vt 0.500000 0.125000
vt 0.500000 0.250000
vt 0.500000 0.375000
vt 0.500000 0.500000
vt 0.812500 0.125000
vt 0.875000 0.125000
vt 0.437500 0.250000
vt 0.437500 0.375000
vt 0.437500 0.125000
vt 0.437500 0.500000
vt 0.375000 0.250000
vt 0.375000 0.375000
vt 0.375000 0.125000
vt 0.375000 0.500000
vt 0.312500 0.125000
vt 0.312500 0.250000
vt 0.312500 0.375000
vt 0.312500 0.500000
vt 0.250000 0.375000
vt 0.250000 0.500000
vt 0.250000 0.250000
vt 0.250000 0.125000
vt 0.187500 0.250000
vt 0.187500 0.375000
vt 0.187500 0.125000
vt 0.187500 0.500000
vt 0.125000 0.125000
vt 0.125000 0.250000
vt 0.125000 0.375000
vt 0.125000 0.500000
vt 0.062500 0.250000
vt 0.062500 0.375000
vt 0.062500 0.500000
vt 0.000000 0.250000
vt 0.000000 0.375000
vt 0.000000 0.500000
vt 1.000000 0.250000
vt 0.937500 0.250000
vt 0.937500 0.375000
vt 1.000000 0.375000
vt 0.937500 0.500000
vt 1.000000 0.500000
vt 0.875000 0.250000
vt 0.875000 0.375000
vt 0.875000 0.500000
vt 0.812500 0.250000
vt 0.812500 0.375000
vt 0.812500 0.500000
vt 0.750000 0.625000
vt 0.687500 0.625000
vt 0.687500 0.750000
vt 0.750000 0.750000
vt 0.750000 0.875000
vt 0.687500 0.875000
vt 0.718750 1.000000
vt 0.718750 0.000000
vt 0.625000 0.625000
vt 0.625000 0.750000
vt 0.625000 0.875000
vt 0.656250 1.000000
vt 0.656250 0.000000
vt 0.593750 0.000000
vt 0.562500 0.625000
vt 0.562500 0.750000
vt 0.562500 0.875000
vt 0.593750 1.000000
vt 0.500000 0.750000
vt 0.500000 0.875000
vt 0.500000 0.625000
vt 0.531250 1.000000
vt 0.531250 0.000000
vt 0.437500 0.625000
vt 0.437500 0.750000
vt 0.437500 0.875000
vt 0.468750 1.000000
vt 0.468750 0.000000
vt 0.375000 0.875000
vt 0.406250 1.000000
vt 0.406250 0.000000
vt 0.375000 0.625000
vt 0.375000 0.750000
vt 0.312500 0.625000
vt 0.312500 0.750000
vt 0.312500 0.875000
vt 0.343750 1.000000
vt 0.343750 0.000000
vt 0.250000 0.625000
vt 0.250000 0.750000
vt 0.250000 0.875000
vt 0.281250 1.000000
vt 0.281250 0.000000
vt 0.187500 0.625000
vt 0.187500 0.750000
vt 0.187500 0.875000
vt 0.218750 1.000000
vt 0.218750 0.000000
vt 0.156250 0.000000
vt 0.125000 0.625000
vt 0.125000 0.750000
vt 0.125000 0.875000
vt 0.156250 1.000000
vt 0.062500 0.625000
vt 0.062500 0.750000
vt 0.062500 0.875000
vt 0.093750 1.000000
vt 0.093750 0.000000
vt 0.000000 0.625000
vt 0.000000 0.750000
vt 0.000000 0.875000
vt 0.031250 1.000000
vt 0.031250 0.000000
vt 1.000000 0.625000
vt 0.937500 0.625000
vt 0.937500 0.750000
vt 1.000000 0.750000
vt 1.000000 0.875000
vt 0.937500 0.875000
vt 0.968750 1.000000
vt 0.968750 0.000000
vt 0.906250 0.000000
vt 0.875000 0.625000
vt 0.875000 0.750000
vt 0.875000 0.875000
vt 0.906250 1.000000
vt 0.812500 0.750000
vt 0.812500 0.875000
vt 0.812500 0.625000
vt 0.843750 1.000000
vt 0.843750 0.000000
vt 0.781250 1.000000
vt 0.781250 0.000000
s 1
f 2/1/1 6/2/2 5/3/3 1/4/4
f 48/5/5 76/5/6 77/6/7 52/6/8
f 65/7/9 7/8/10 6/2/2 2/1/1
f 3/9/11 8/10/12 7/8/10 65/7/9
f 3/9/13 4/9/14 66/10/15 8/10/16
f 7/8/10 11/11/17 10/12/18 6/2/2
f 8/10/12 12/13/19 11/11/17 7/8/10
f 6/2/2 10/12/18 9/14/20 5/3/3
f 12/13/19 16/15/21 15/16/22 11/11/17
f 10/12/18 14/17/23 13/18/24 9/14/20
f 52/19/8 77/19/7 78/20/25 56/20/26
f 11/11/17 15/16/22 14/17/23 10/12/18
f 16/15/21 20/21/27 19/22/28 15/16/22
f 14/17/23 18/23/29 17/24/30 13/18/24
f 64/25/31 80/25/32 4/9/14 3/9/13
f 15/16/22 19/22/28 18/23/29 14/17/23
f 56/20/26 78/20/25 79/26/33 60/26/34
f 19/22/28 23/27/35 22/28/36 18/23/29
f 20/21/27 24/29/37 23/27/35 19/22/28
f 18/23/29 22/28/36 21/30/38 17/24/30
f 23/27/35 27/31/39 26/32/40 22/28/36
f 24/29/37 28/33/41 27/31/39 23/27/35
f 22/28/36 26/32/40 25/34/42 21/30/38
f 60/26/34 79/26/33 80/25/32 64/25/31
f 28/33/41 32/35/43 31/36/44 27/31/39
f 26/32/40 30/37/45 29/38/46 25/34/42
f 24/29/47 70/29/48 71/33/49 28/33/50
f 27/31/39 31/36/44 30/37/45 26/32/40
f 30/37/45 34/39/51 33/40/52 29/38/46
f 8/10/16 66/10/15 67/13/53 12/13/54
f 31/36/44 35/41/55 34/39/51 30/37/45
f 32/35/43 36/42/56 35/41/55 31/36/44
f 32/35/57 72/35/58 73/42/59 36/42/60
f 35/41/55 39/43/61 38/44/62 34/39/51
f 36/42/56 40/45/63 39/43/61 35/41/55
f 34/39/51 38/44/62 37/46/64 33/40/52
f 40/45/63 44/47/65 43/48/66 39/43/61
f 38/44/62 42/49/67 41/50/68 37/46/64
f 12/13/54 67/13/53 68/15/69 16/15/70
f 39/43/61 43/48/66 42/49/67 38/44/62
f 44/47/65 48/5/71 47/51/72 43/48/66
f 42/49/67 46/52/73 45/53/74 41/50/68
f 16/15/70 68/15/69 69/21/75 20/21/76
f 43/48/66 47/51/72 46/52/73 42/49/67
f 20/21/76 69/21/75 70/29/48 24/29/47
f 47/51/72 51/54/77 50/55/78 46/52/73
f 48/5/71 52/6/79 51/54/77 47/51/72
f 46/52/73 50/55/78 49/56/80 45/53/74
f 28/33/50 71/33/49 72/35/58 32/35/57
f 51/57/77 55/58/81 54/59/82 50/60/78
f 52/19/79 56/20/83 55/58/81 51/57/77
f 50/60/78 54/59/82 53/61/84 49/62/80
f 56/20/83 60/26/85 59/63/86 55/58/81
f 54/59/82 58/64/87 57/65/88 53/61/84
f 4/9/14 80/25/32 79/26/33 78/20/25 77/19/7 76/5/6 75/47/89 74/45/90 73/42/59 72/35/58 71/33/49 70/29/48 69/21/75 68/15/69 67/13/53 66/10/15
f 55/58/81 59/63/86 58/64/87 54/59/82
f 60/26/85 64/25/91 63/66/92 59/63/86
f 58/64/87 62/67/93 61/68/94 57/65/88
f 40/45/95 74/45/90 75/47/89 44/47/96
f 59/63/86 63/66/92 62/67/93 58/64/87
f 44/47/96 75/47/89 76/5/6 48/5/5
f 63/66/92 65/7/9 2/1/1 62/67/93
f 5/3/3 9/14/20 13/18/24 17/24/30 21/30/38 25/34/42 29/38/46 33/40/52 37/46/64 41/50/68 45/53/74 49/56/80 53/61/84 57/65/88 61/68/94 1/4/4
f 64/25/91 3/9/11 65/7/9 63/66/92
f 62/67/93 2/1/1 1/4/4 61/68/94
f 36/42/60 73/42/59 74/45/90 40/45/95
f 85/9/97 93/10/98 92/8/99 194/7/100
f 84/1/101 91/2/102 90/3/16 83/4/13
f 82/69/103 89/70/104 88/71/105 193/72/106
f 192/73/107 87/74/108 81/75/109
f 86/76/110 93/10/98 85/9/97
f 194/7/100 92/8/99 91/2/102 84/1/101
f 83/4/13 90/3/16 89/70/104 82/69/103
f 193/72/106 88/71/105 87/74/108 192/73/107
f 89/70/104 96/77/111 95/78/112 88/71/105
f 87/74/108 94/79/113 81/80/109
f 86/81/110 100/13/114 93/10/98
f 92/8/99 99/11/115 98/12/116 91/2/102
f 90/3/16 97/14/54 96/77/111 89/70/104
f 88/71/105 95/78/112 94/79/113 87/74/108
f 93/10/98 100/13/114 99/11/115 92/8/99
f 91/2/102 98/12/116 97/14/54 90/3/16
f 86/82/110 107/15/117 100/13/114
f 99/11/115 106/16/118 105/17/119 98/12/116
f 97/14/54 104/18/70 103/83/120 96/77/111
f 95/78/112 102/84/121 101/85/122 94/79/113
f 100/13/114 107/15/117 106/16/118 99/11/115
f 98/12/116 105/17/119 104/18/70 97/14/54
f 96/77/111 103/83/120 102/84/121 95/78/112
f 94/79/113 101/85/122 81/86/109
f 102/84/121 109/87/123 108/88/124 101/85/122
f 107/15/117 114/21/125 113/22/126 106/16/118
f 105/17/119 112/23/127 111/24/76 104/18/70
f 103/83/120 110/89/128 109/87/123 102/84/121
f 101/85/122 108/88/124 81/90/109
f 86/91/110 114/21/125 107/15/117
f 106/16/118 113/22/126 112/23/127 105/17/119
f 104/18/70 111/24/76 110/89/128 103/83/120
f 114/21/125 121/29/129 120/27/130 113/22/126
f 112/23/127 119/28/131 118/30/47 111/24/76
f 110/89/128 117/92/132 116/93/133 109/87/123
f 108/88/124 115/94/134 81/95/109
f 86/96/110 121/29/129 114/21/125
f 113/22/126 120/27/130 119/28/131 112/23/127
f 111/24/76 118/30/47 117/92/132 110/89/128
f 109/87/123 116/93/133 115/94/134 108/88/124
f 115/94/134 122/97/135 81/98/109
f 86/99/110 128/33/136 121/29/129
f 120/27/130 127/31/137 126/32/138 119/28/131
f 118/30/47 125/34/50 124/100/139 117/92/132
f 116/93/133 123/101/140 122/97/135 115/94/134
f 121/29/129 128/33/136 127/31/137 120/27/130
f 119/28/131 126/32/138 125/34/50 118/30/47
f 117/92/132 124/100/139 123/101/140 116/93/133
f 127/31/137 134/36/141 133/37/142 126/32/138
f 125/34/50 132/38/57 131/102/143 124/100/139
f 123/101/140 130/103/144 129/104/145 122/97/135
f 128/33/136 135/35/146 134/36/141 127/31/137
f 126/32/138 133/37/142 132/38/57 125/34/50
f 124/100/139 131/102/143 130/103/144 123/101/140
f 122/97/135 129/104/145 81/105/109
f 86/106/110 135/35/146 128/33/136
f 135/35/146 142/42/147 141/41/148 134/36/141
f 133/37/142 140/39/149 139/40/60 132/38/57
f 131/102/143 138/107/150 137/108/151 130/103/144
f 129/104/145 136/109/152 81/110/109
f 86/111/110 142/42/147 135/35/146
f 134/36/141 141/41/148 140/39/149 133/37/142
f 132/38/57 139/40/60 138/107/150 131/102/143
f 130/103/144 137/108/151 136/109/152 129/104/145
f 140/39/149 147/44/153 146/46/95 139/40/60
f 138/107/150 145/112/154 144/113/155 137/108/151
f 136/109/152 143/114/156 81/115/109
f 86/116/110 149/45/157 142/42/147
f 141/41/148 148/43/158 147/44/153 140/39/149
f 139/40/60 146/46/95 145/112/154 138/107/150
f 137/108/151 144/113/155 143/114/156 136/109/152
f 142/42/147 149/45/157 148/43/158 141/41/148
f 86/117/110 156/47/159 149/45/157
f 148/43/158 155/48/160 154/49/161 147/44/153
f 146/46/95 153/50/96 152/118/162 145/112/154
f 144/113/155 151/119/163 150/120/164 143/114/156
f 149/45/157 156/47/159 155/48/160 148/43/158
f 147/44/153 154/49/161 153/50/96 146/46/95
f 145/112/154 152/118/162 151/119/163 144/113/155
f 143/114/156 150/120/164 81/121/109
f 153/50/96 160/53/5 159/122/165 152/118/162
f 151/119/163 158/123/166 157/124/167 150/120/164
f 156/47/159 163/5/168 162/51/169 155/48/160
f 154/49/161 161/52/170 160/53/5 153/50/96
f 152/118/162 159/122/165 158/123/166 151/119/163
f 150/120/164 157/124/167 81/125/109
f 86/126/110 163/5/168 156/47/159
f 155/48/160 162/51/169 161/52/170 154/49/161
f 163/5/168 170/6/171 169/54/172 162/51/169
f 161/52/170 168/55/173 167/56/8 160/53/5
f 159/122/165 166/127/174 165/128/175 158/123/166
f 157/124/167 164/129/176 81/130/109
f 86/131/110 170/6/171 163/5/168
f 162/51/169 169/54/172 168/55/173 161/52/170
f 160/53/5 167/56/8 166/127/174 159/122/165
f 158/123/166 165/128/175 164/129/176 157/124/167
f 166/132/174 173/133/177 172/134/178 165/135/175
f 164/136/176 171/137/179 81/138/109
f 86/139/110 177/20/180 170/19/171
f 169/57/172 176/58/181 175/59/182 168/60/173
f 167/62/8 174/61/26 173/133/177 166/132/174
f 165/135/175 172/134/178 171/137/179 164/136/176
f 170/19/171 177/20/180 176/58/181 169/57/172
f 168/60/173 175/59/182 174/61/26 167/62/8
f 86/140/110 184/26/183 177/20/180
f 176/58/181 183/63/184 182/64/185 175/59/182
f 174/61/26 181/65/34 180/141/186 173/133/177
f 172/134/178 179/142/187 178/143/188 171/137/179
f 177/20/180 184/26/183 183/63/184 176/58/181
f 175/59/182 182/64/185 181/65/34 174/61/26
f 173/133/177 180/141/186 179/142/187 172/134/178
f 171/137/179 178/143/188 81/144/109
f 179/142/187 186/145/189 185/146/190 178/143/188
f 184/26/183 191/25/191 190/66/192 183/63/184
f 182/64/185 189/67/193 188/68/31 181/65/34
f 180/141/186 187/147/194 186/145/189 179/142/187
f 178/143/188 185/146/190 81/148/109
f 86/149/110 191/25/191 184/26/183
f 183/63/184 190/66/192 189/67/193 182/64/185
f 181/65/34 188/68/31 187/147/194 180/141/186
f 191/25/191 85/9/97 194/7/100 190/66/192
f 189/67/193 84/1/101 83/4/13 188/68/31
f 187/147/194 82/69/103 193/72/106 186/145/189
f 185/146/190 192/73/107 81/150/109
f 86/151/110 85/9/97 191/25/191
f 190/66/192 194/7/100 84/1/101 189/67/193
f 188/68/31 83/4/13 82/69/103 187/147/194
f 186/145/189 193/72/106 192/73/107 185/146/190
